<?xml version="1.0" standalone="no"?>
<!DOCTYPE svg PUBLIC "-//W3C//DTD SVG 20010904//EN"
 "http://www.w3.org/TR/2001/REC-SVG-20010904/DTD/svg10.dtd">
<svg version="1.0" xmlns="http://www.w3.org/2000/svg"
 width="512.000000pt" height="512.000000pt" viewBox="0 0 512.000000 512.000000"
 preserveAspectRatio="xMidYMid meet">

<g transform="translate(0.000000,512.000000) scale(0.100000,-0.100000)"
fill="#000000" stroke="none">
<path d="M694 5104 c-59 -21 -123 -80 -150 -138 -63 -135 0 -307 133 -362 l33
-14 0 -589 0 -588 -44 -13 c-56 -15 -110 -60 -139 -113 -21 -41 -22 -53 -25
-370 -3 -372 0 -396 66 -459 69 -66 88 -72 278 -76 l171 -4 6 -142 c8 -162 29
-261 78 -357 88 -176 210 -295 381 -373 98 -45 180 -63 321 -72 l117 -6 0
-139 0 -138 -497 -3 -498 -3 -58 -28 c-72 -36 -149 -111 -179 -176 -22 -49
-23 -50 -90 -65 -102 -23 -183 -69 -264 -150 -128 -128 -164 -230 -164 -468 0
-145 2 -157 23 -189 12 -19 38 -42 57 -51 33 -17 164 -18 2310 -18 2146 0
2277 1 2310 18 19 9 45 32 57 51 21 32 23 44 23 189 0 238 -36 340 -164 468
-81 81 -162 127 -264 150 -67 15 -68 16 -90 65 -30 65 -107 140 -179 176 l-58
28 -497 3 -498 3 0 138 0 138 113 7 c61 4 144 14 182 23 117 26 251 95 345
179 32 28 43 32 117 37 64 4 93 11 134 34 49 26 101 82 114 123 5 15 21 18
113 22 126 5 167 21 231 94 73 83 72 76 69 725 -3 571 -3 574 -25 616 -29 52
-83 98 -138 113 l-42 12 -6 181 c-4 149 -10 199 -30 278 -104 399 -395 692
-797 801 l-85 23 -935 0 -935 0 -99 -28 c-250 -70 -472 -224 -615 -428 l-51
-72 0 211 0 212 34 14 c53 22 112 81 136 139 93 214 -117 439 -336 361z m140
-148 c46 -19 66 -52 66 -107 0 -84 -70 -134 -152 -110 -95 29 -105 177 -15
216 41 18 60 18 101 1z m2710 -429 c295 -88 510 -269 631 -531 58 -123 76
-218 82 -413 l6 -173 -82 0 -81 0 0 93 c-1 202 -36 384 -85 433 -30 30 -71 31
-102 2 -29 -27 -29 -49 -1 -124 l23 -59 3 -792 3 -793 -188 0 c-167 0 -193 -3
-233 -21 -97 -44 -144 -117 -144 -224 0 -130 71 -215 214 -252 l35 -9 -50 -23
c-114 -51 -109 -51 -1019 -51 -932 0 -901 -2 -1031 62 -139 67 -247 185 -307
333 l-33 80 0 845 0 845 28 70 c63 157 171 277 312 345 123 61 127 61 149 1
43 -120 161 -233 283 -271 62 -19 92 -20 603 -20 496 0 543 1 598 18 125 39
238 145 285 265 20 53 24 57 47 52 45 -11 140 -57 188 -92 54 -38 79 -41 116
-12 29 23 36 73 14 101 -38 46 -186 123 -299 155 -60 17 -122 18 -949 18 -979
0 -926 3 -1076 -65 -113 -51 -236 -151 -309 -250 -101 -138 -143 -276 -152
-502 l-6 -158 -80 0 -80 0 6 173 c6 200 25 292 87 424 51 110 110 191 201 279
109 104 212 168 346 215 135 48 133 48 1088 46 826 -2 905 -4 959 -20z m-244
-301 c0 -27 -67 -110 -114 -143 -26 -18 -65 -37 -87 -43 -25 -7 -219 -10 -561
-8 -521 3 -523 3 -565 26 -64 33 -111 80 -139 134 l-24 48 745 0 c630 0 745
-2 745 -14z m-2280 -1326 l0 -360 -163 0 c-154 0 -165 1 -183 21 -18 20 -19
42 -22 318 -2 163 0 306 3 319 3 12 14 31 25 42 18 18 34 20 180 20 l160 0 0
-360z m3420 340 c11 -11 22 -30 25 -42 3 -13 5 -156 3 -319 -3 -276 -4 -298
-22 -318 -18 -20 -29 -21 -183 -21 l-163 0 0 360 0 360 160 0 c146 0 162 -2
180 -20z m15 -1170 c-27 -52 -69 -70 -162 -70 l-82 0 -17 35 c-9 20 -35 52
-59 73 l-42 37 5 118 5 117 141 1 c77 0 159 3 181 7 l40 7 3 -147 c2 -119 -1
-154 -13 -178z m-436 -65 c57 -29 65 -115 14 -155 -24 -19 -40 -20 -238 -20
-211 0 -212 0 -239 25 -21 19 -26 33 -26 69 0 37 5 48 31 70 l31 26 199 0
c155 0 206 -3 228 -15z m-969 -710 l0 -135 -490 0 -490 0 0 135 0 135 490 0
490 0 0 -135z m1128 -311 c49 -20 100 -70 123 -119 17 -36 19 -70 19 -377 l0
-338 -249 0 -250 0 -3 153 c-3 147 -4 155 -30 194 -16 24 -44 49 -70 62 -44
21 -50 21 -810 21 -729 0 -767 -1 -789 -18 -33 -27 -30 -78 5 -109 l27 -23
748 0 c568 0 750 -3 759 -12 8 -8 12 -54 12 -140 l0 -128 -1110 0 -1110 0 0
128 c0 86 4 132 12 140 8 8 66 12 194 12 168 0 183 1 208 21 33 26 36 79 6
109 -19 19 -33 20 -222 20 -233 0 -267 -9 -316 -83 -26 -39 -27 -47 -30 -194
l-3 -153 -250 0 -249 0 0 335 c0 370 1 379 63 444 18 18 50 42 72 52 38 18
102 19 1623 19 1407 0 1587 -2 1620 -16z m-3528 -544 l0 -290 -166 0 -166 0 4
143 c3 135 4 145 35 209 42 90 100 150 186 193 116 58 107 80 107 -255z m3927
255 c86 -43 144 -103 186 -193 31 -64 32 -74 35 -209 l4 -143 -166 0 -166 0 0
290 c0 335 -9 313 107 255z"/>
<path d="M1538 3686 c-94 -25 -183 -112 -210 -206 -10 -34 -13 -152 -13 -485
l0 -440 26 -56 c33 -70 87 -125 153 -155 l51 -23 1011 -2 1012 -1 54 25 c70
31 124 85 157 156 l26 56 0 440 c0 333 -3 451 -13 485 -29 100 -123 188 -223
209 -77 17 -1969 14 -2031 -3z m2037 -159 c17 -10 39 -31 50 -45 19 -26 20
-45 23 -467 2 -425 2 -441 -18 -473 -11 -18 -34 -41 -52 -52 -32 -20 -53 -20
-1018 -20 -965 0 -986 0 -1018 20 -18 11 -41 34 -52 52 -19 32 -20 52 -20 468
0 406 1 437 19 463 21 33 52 56 89 67 15 5 464 8 997 7 922 -2 971 -3 1000
-20z"/>
<path d="M1886 3284 c-72 -23 -156 -110 -180 -188 -45 -142 18 -287 152 -353
113 -55 262 -27 343 64 101 115 100 281 -1 397 -72 81 -205 115 -314 80z m165
-155 c81 -41 99 -145 37 -215 -73 -83 -203 -54 -239 53 -21 64 10 135 73 166
44 22 81 21 129 -4z"/>
<path d="M3060 3291 c-212 -65 -286 -318 -141 -484 81 -91 230 -119 343 -64
133 65 195 208 154 352 -24 80 -108 166 -186 189 -56 17 -128 20 -170 7z m136
-157 c42 -20 73 -62 81 -108 7 -46 -26 -115 -69 -140 -91 -54 -211 12 -211
116 0 58 25 103 71 127 46 25 84 26 128 5z"/>
<path d="M2140 2100 c-29 -29 -27 -102 6 -168 28 -56 63 -90 128 -125 39 -21
53 -22 286 -22 l245 0 51 27 c87 46 143 132 144 221 0 58 -24 87 -74 87 -40 0
-76 -37 -76 -77 0 -33 -28 -78 -58 -95 -19 -10 -79 -13 -232 -13 -153 0 -213
3 -232 13 -30 17 -58 62 -58 95 0 13 -9 36 -21 51 -26 33 -79 36 -109 6z"/>
</g>
</svg>
