<?xml version="1.0" standalone="no"?>
<!DOCTYPE svg PUBLIC "-//W3C//DTD SVG 20010904//EN"
 "http://www.w3.org/TR/2001/REC-SVG-20010904/DTD/svg10.dtd">
<svg version="1.0" xmlns="http://www.w3.org/2000/svg"
 width="512.000000pt" height="512.000000pt" viewBox="0 0 512.000000 512.000000"
 preserveAspectRatio="xMidYMid meet">

<g transform="translate(0.000000,512.000000) scale(0.100000,-0.100000)"
fill="#000000" stroke="none">
<path d="M2560 4600 c142 -39 251 -92 365 -178 246 -183 410 -460 477 -805
l23 -117 146 0 146 0 -9 58 c-32 210 -130 452 -249 613 -56 76 -170 190 -248
248 -170 127 -401 202 -615 200 l-101 -1 65 -18z"/>
<path d="M1350 2764 c0 -57 -30 -371 -46 -477 -29 -200 -85 -400 -168 -596
l-34 -80 47 23 c71 36 185 75 298 102 92 22 159 31 126 17 -10 -3 -13 -56 -13
-213 0 -179 3 -217 20 -272 62 -200 247 -321 490 -321 154 0 278 45 378 138
63 58 103 128 121 213 20 97 25 92 -92 92 -64 0 -122 6 -153 15 -95 29 -185
117 -220 217 -10 29 -16 107 -21 260 l-6 218 -68 51 c-188 139 -300 323 -330
541 l-12 88 -136 0 c-75 0 -146 3 -158 6 -20 6 -23 3 -23 -22z"/>
<path d="M3490 2732 c0 -66 -34 -193 -72 -272 -18 -36 -32 -69 -32 -75 -1 -13
76 -8 141 11 65 18 130 78 161 149 18 40 52 189 52 228 0 4 -56 7 -125 7
l-125 0 0 -48z"/>
<path d="M3811 2428 c-1 -24 -95 -123 -144 -151 -72 -42 -143 -58 -297 -64
l-144 -6 -53 -43 c-29 -24 -61 -48 -72 -53 -18 -10 -20 -26 -23 -233 l-3 -223
-31 -66 c-38 -79 -90 -133 -164 -168 -48 -23 -71 -26 -174 -29 l-119 -4 6 -56
c16 -175 140 -311 332 -368 84 -24 229 -22 316 5 159 50 275 174 308 329 6 29
11 144 11 257 0 113 3 205 8 205 4 0 52 -11 107 -24 117 -29 227 -67 306 -107
l56 -28 -44 107 c-81 195 -138 411 -167 632 -8 58 -14 97 -15 88z"/>
<path d="M2536 759 c-36 -28 -36 -80 0 -108 43 -34 86 -26 110 20 38 75 -43
141 -110 88z"/>
<path d="M2530 400 c-45 -45 -11 -120 54 -120 66 0 94 72 49 123 -22 23 -78
22 -103 -3z"/>
</g>
</svg>
